<svg width="47" height="19" viewBox="0 0 47 19" fill="none" xmlns="http://www.w3.org/2000/svg">
<path d="M7.32696 3.97885C7.85494 3.80247 8.41938 3.70769 9.00713 3.70769C11.5699 3.70769 13.7096 5.52802 14.1998 7.94758L17.8326 7.20654C16.9989 3.09456 13.3651 0 9.00713 0C8.00852 0 7.0492 0.162747 6.15173 0.462608L7.32696 3.97885Z" fill="#FFCC00"/>
<path d="M3.03952 15.7528L5.49627 12.9752C4.3996 12.0036 3.70768 10.5857 3.70768 9.00599C3.70768 7.42744 4.39865 6.01019 5.49461 5.03983L3.03764 2.26184C1.17522 3.9119 0 6.32208 0 9.00599C0 11.6916 1.17568 14.1024 3.03952 15.7528Z" fill="#00A0DE"/>
<path d="M14.1988 10.0692C13.7065 12.4876 11.5692 14.3044 9.00711 14.3044C8.41916 14.3044 7.85307 14.2096 7.32532 14.0323L6.14844 17.55C7.04614 17.8496 8.00735 18.0119 9.00711 18.0119C13.3609 18.0119 16.9942 14.9225 17.8312 10.8143L14.1988 10.0692Z" fill="#EC3413"/>
<path d="M21.0096 13.0922C20.8906 12.8994 20.7288 12.5911 20.6314 12.3641C20.0562 11.0285 20.0287 9.64632 20.5146 8.31942C21.0487 6.8643 22.0691 5.75027 23.3875 5.18299C25.0452 4.46967 26.8784 4.61031 28.4671 5.55294C29.4763 6.13193 30.1917 7.02588 30.735 8.28975L30.7854 8.4126L30.8794 8.65681C30.8945 8.69618 30.9095 8.7345 30.9243 8.77118L21.0096 13.0922ZM24.3203 7.32716C23.1432 7.83305 22.5364 8.93722 22.6611 10.2319L27.6474 8.08588C26.79 7.07812 25.674 6.74414 24.3203 7.32716ZM30.1966 13.2851L28.2693 11.9965L28.2665 11.9993L28.1632 11.9297C27.8657 12.4126 27.4014 12.8037 26.8156 13.0577C25.7011 13.5424 24.6681 13.4177 23.9264 12.7672L23.8582 12.8709C23.8575 12.8697 23.8572 12.8688 23.856 12.8688L22.591 14.7614C22.905 14.9796 23.2422 15.1644 23.5964 15.3121C24.9939 15.8926 26.4236 15.8658 27.8321 15.2531C28.8509 14.8116 29.6503 14.1383 30.1966 13.2851ZM34.3897 2.39581V12.9175L36.0255 13.5805L35.096 15.7493L33.2903 14.9974C32.885 14.822 32.6091 14.5534 32.4003 14.2503C32.2006 13.9412 32.0513 13.5172 32.0513 12.9462V2.39581H34.3897ZM38.6275 10.2371C38.6285 9.34107 39.024 8.53765 39.6501 7.99156L37.9718 6.12017C36.8335 7.12632 36.1167 8.59647 36.1153 10.2345C36.1134 11.8731 36.8293 13.3448 37.9664 14.3535L39.6428 12.4803C39.0198 11.9321 38.6268 11.131 38.6275 10.2371ZM41.6094 13.2235C41.2789 13.2225 40.9607 13.168 40.6639 13.0692L39.8625 15.4523C40.4102 15.6362 40.997 15.7364 41.6068 15.7374C44.2642 15.74 46.4831 13.8545 46.9972 11.3479L44.5337 10.8448C44.2536 12.2035 43.0506 13.2244 41.6094 13.2235ZM41.6167 4.7425C41.0076 4.74179 40.4211 4.84081 39.874 5.02306L40.6685 7.4083C40.9662 7.31 41.2844 7.25568 41.6144 7.25568C43.0589 7.2571 44.2628 8.28411 44.5363 9.64656L47.0001 9.14678C46.493 6.63664 44.2762 4.74412 41.6167 4.7425Z" fill="black"/>
</svg>
