<svg width="37" height="29" viewBox="0 0 37 29" fill="none" xmlns="http://www.w3.org/2000/svg">
<path d="M36.25 3.625V25.375C36.25 26.3719 35.8951 27.2253 35.1852 27.9352C34.4753 28.6451 33.6219 29 32.625 29H3.625C2.62813 29 1.77474 28.6451 1.06484 27.9352C0.354948 27.2253 0 26.3719 0 25.375V3.625C0 2.62813 0.354948 1.77474 1.06484 1.06484C1.77474 0.354948 2.62813 0 3.625 0H32.625C33.6219 0 34.4753 0.354948 35.1852 1.06484C35.8951 1.77474 36.25 2.62813 36.25 3.625ZM3.625 7.25H32.625V3.625H3.625V7.25ZM3.625 14.5V25.375H32.625V14.5H3.625Z" fill="#5F6368"/>
</svg>
