<svg width="47" height="16" viewBox="0 0 47 16" fill="none" xmlns="http://www.w3.org/2000/svg">
<path d="M30.6128 0C27.2756 0 24.2934 1.72973 24.2934 4.92554C24.2934 8.59051 29.5825 8.84362 29.5825 10.6848C29.5825 11.46 28.6941 12.154 27.1767 12.154C25.0232 12.154 23.4137 11.1844 23.4137 11.1844L22.725 14.4093C22.725 14.4093 24.5791 15.2284 27.0408 15.2284C30.6894 15.2284 33.5604 13.4137 33.5604 10.1633C33.5604 6.29057 28.2493 6.04493 28.2493 4.33604C28.2493 3.72867 28.9785 3.06328 30.4916 3.06328C32.1988 3.06328 33.5916 3.76852 33.5916 3.76852L34.2656 0.653813C34.2656 0.653813 32.7501 0 30.6128 0ZM0.0808268 0.235094L0 0.705235C0 0.705235 1.40398 0.962159 2.66846 1.47474C4.29657 2.06245 4.41259 2.40462 4.68678 3.46732L7.67474 14.9859H11.6802L17.8509 0.235094H13.8546L9.88962 10.2643L8.27167 1.76304C8.12328 0.790108 7.37166 0.235094 6.45166 0.235094H0.0808268ZM19.4579 0.235094L16.3229 14.9859H20.1337L23.2576 0.235047H19.4579V0.235094ZM40.7118 0.235094C39.7929 0.235094 39.306 0.727065 38.9487 1.58676L33.3657 14.9859H37.362L38.1352 12.7527H43.0037L43.4739 14.9859H47L43.9238 0.235094H40.7118ZM41.2315 4.22031L42.4161 9.75553H39.2426L41.2315 4.22031Z" fill="#1434CB"/>
</svg>
