<svg width="29" height="29" viewBox="0 0 29 29" fill="none" xmlns="http://www.w3.org/2000/svg">
<path d="M0 0V29H29V24.418H24.998L23.519 22.6879L21.982 24.418H10.614V15.2059H6.86314L11.5519 4.59186H16.1141L17.2161 6.99886V4.59186H22.881L23.8281 7.11486L24.7561 4.59186H29V0H0ZM25.723 6.09L24.2341 10.0149L23.838 11.0786L23.432 10.0149L21.9339 6.09H18.6569V13.8237H20.6289V8.78758L20.619 7.772L21.0059 8.78758L22.8909 13.8237H24.766L26.6609 8.78758L27.028 7.78186V13.8237H29V6.09H25.723ZM12.615 6.09L9.193 13.8237H11.4353L12.035 12.3349H15.7859L16.385 13.8237H18.6569L15.254 6.09H12.615ZM13.5233 8.70986L13.9101 7.74358L14.297 8.70986L15.0991 10.6621H12.7211L13.5233 8.70986ZM25.8779 15.2157L23.548 17.719L21.228 15.2157H18.6569H12.1991V22.9199H18.6569V21.2477H14.1711V19.9039H18.5699V18.2416H14.1711V16.8879H18.6569V15.2157L22.2621 19.082L18.6569 22.9199H21.1509L23.4999 20.4067L25.839 22.9199H28.4003L24.7851 19.053L28.4003 15.2157H25.8779ZM26.8151 19.0437L29 21.2669V16.849L26.8151 19.0437Z" fill="#006FCF"/>
</svg>
