<svg width="47" height="30" viewBox="0 0 47 30" fill="none" xmlns="http://www.w3.org/2000/svg">
<g id="Mastercard Logo">
<path id="Vector" d="M29.8401 3.10919H17.1213V25.9598H29.8401V3.10919Z" fill="#FF5A00"/>
<path id="Vector_2" d="M17.9681 14.5344C17.9681 9.89187 20.1506 5.7714 23.4996 3.10911C21.0349 1.17122 17.9258 0 14.5344 0C6.50046 0 0 6.50049 0 14.5344C0 22.5683 6.50046 29.0689 14.5344 29.0689C17.9258 29.0689 21.0349 27.8976 23.4996 25.9597C20.1459 23.335 17.9681 19.1769 17.9681 14.5344Z" fill="#EB001B"/>
<path id="Vector_3" d="M47 14.5344C47 22.5683 40.4995 29.0689 32.4656 29.0689C29.0742 29.0689 25.9651 27.8976 23.5004 25.9597C26.8917 23.2927 29.0319 19.1769 29.0319 14.5344C29.0319 9.89187 26.8494 5.7714 23.5004 3.10911C25.9604 1.17122 29.0696 0 32.4609 0C40.4995 0 47 6.54285 47 14.5344Z" fill="#F79E1B"/>
</g>
</svg>
